<svg width="67" height="67" viewBox="0 0 67 67" fill="none" xmlns="http://www.w3.org/2000/svg">
<path d="M30.8341 8.71069L32.2861 11.4379C32.6125 11.9411 32.9662 12.3866 33.3827 12.8015C34.604 14.0075 35.7423 15.2947 36.79 16.6542C39.2503 19.8847 40.9097 23.4722 42.0948 27.3521C42.8055 29.7223 43.1914 32.1536 43.2203 34.6122C43.3393 41.9623 40.8196 48.2736 35.7393 53.5188C34.9129 54.3506 34.0202 55.1137 33.0699 55.8006C32.5666 55.8006 32.3286 55.4146 32.1212 55.0592C31.7434 54.4003 31.492 53.6766 31.3799 52.9254C31.2013 52.0362 31.084 51.147 31.1418 50.2289V49.814C31.101 49.7256 30.6572 8.91982 30.8341 8.71069Z" fill="#599636"/>
<path d="M30.8341 8.62063C30.7746 8.50161 30.7151 8.59172 30.6556 8.64953C30.6845 9.24462 30.477 9.77509 30.1523 10.2818C29.7952 10.785 29.3226 11.171 28.8482 11.5858C26.2128 13.8676 24.1385 16.6237 22.4774 19.7062C20.2671 23.8548 19.1279 28.3009 18.8049 32.9817C18.657 34.67 19.3388 40.6277 19.8709 42.3466C21.323 46.91 23.9311 50.7339 27.3095 54.0527C28.1392 54.8519 29.0267 55.5932 29.9449 56.3056C30.2118 56.3056 30.2407 56.0675 30.3019 55.8907C30.419 55.5123 30.5082 55.1259 30.5689 54.7345L31.1639 50.2901L30.8341 8.62063Z" fill="#6CAC48"/>
<path d="M32.2861 57.6062C32.3456 56.9261 32.672 56.3616 33.0274 55.7988C32.6703 55.6509 32.4051 55.3568 32.1977 55.0286C32.0188 54.7179 31.8708 54.3905 31.7556 54.051C31.3408 52.8064 31.2523 51.5006 31.1333 50.2288V49.4586C30.9854 49.5776 30.9548 50.5842 30.9548 50.7338C30.8683 52.078 30.6899 53.4146 30.4209 54.7345C30.3325 55.2683 30.273 55.8005 29.9449 56.2749C29.9449 56.3344 29.9449 56.3939 29.9738 56.4823C30.5076 58.0533 30.6539 59.6533 30.744 61.2838V61.8789C30.744 62.5896 30.7151 62.44 31.305 62.678C31.5431 62.7664 31.8083 62.797 32.0464 62.9738C32.2249 62.9738 32.2538 62.8259 32.2538 62.7069L32.1654 61.7293V59.0021C32.1365 58.526 32.2249 58.0533 32.2844 57.6079L32.2861 57.6062Z" fill="#C2BFBF"/>
</svg>
