<svg width="67" height="67" viewBox="0 0 67 67" fill="none" xmlns="http://www.w3.org/2000/svg">
<g clip-path="url(#clip0_119_110)">
<path d="M31.306 0.0180299C31.1619 0.0311267 30.7034 0.0769656 30.2908 0.109708C20.7746 0.967548 11.8609 6.1015 6.21535 13.9923C3.07165 18.3798 1.061 23.3565 0.301271 28.628C0.0327468 30.4681 0 31.0116 0 33.5066C0 36.0015 0.0327468 36.545 0.301271 38.3851C2.12199 50.9646 11.075 61.5337 23.2175 65.4497C25.3919 66.1503 27.6842 66.6284 30.2908 66.9165C31.306 67.0278 35.694 67.0278 36.7092 66.9165C41.2086 66.4188 45.0203 65.3056 48.7797 63.3869C49.356 63.0922 49.4674 63.0137 49.3888 62.9482C49.3364 62.9089 46.8804 59.615 43.9331 55.6336L38.5758 48.3976L31.8627 38.4637C28.1688 33.0023 25.1299 28.5363 25.1037 28.5363C25.0775 28.5298 25.0513 32.9434 25.0382 38.3327C25.0186 47.769 25.012 48.1488 24.8941 48.3714C24.7239 48.6923 24.5929 48.8233 24.3178 48.9673C24.1082 49.0721 23.9248 49.0918 22.9359 49.0918H21.8028L21.5016 48.9019C21.3051 48.7774 21.161 48.6137 21.0628 48.4238L20.9252 48.1291L20.9383 34.9996L20.958 21.8635L21.161 21.6081C21.2658 21.4706 21.4885 21.2938 21.6456 21.2087C21.9142 21.0777 22.019 21.0646 23.152 21.0646C24.4881 21.0646 24.7108 21.117 25.0579 21.4968C25.1561 21.6016 28.791 27.076 33.1398 33.6703C37.4886 40.2645 43.4354 49.2686 46.3564 53.6887L51.6614 61.7236L51.9299 61.5468C54.3073 60.0014 56.8223 57.8011 58.8133 55.5092C63.0507 50.6437 65.7818 44.7109 66.6987 38.3851C66.9673 36.545 67 36.0015 67 33.5066C67 31.0116 66.9673 30.4681 66.6987 28.628C64.878 16.0485 55.925 5.4794 43.7825 1.56345C41.6409 0.869322 39.3617 0.391289 36.8074 0.103159C36.1787 0.0376751 31.8496 -0.0343573 31.306 0.0180299ZM45.0203 20.2788C45.3347 20.4359 45.5901 20.7372 45.6818 21.0515C45.7342 21.2218 45.7473 24.8627 45.7342 33.0678L45.7146 44.8418L43.6384 41.6593L41.5557 38.4768V29.918C41.5557 24.3846 41.5819 21.2741 41.6212 21.1235C41.726 20.7568 41.9552 20.4687 42.2696 20.2984C42.5381 20.1609 42.6364 20.1478 43.6646 20.1478C44.6339 20.1478 44.8042 20.1609 45.0203 20.2788Z" fill="black"/>
</g>
<defs>
<clipPath id="clip0_119_110">
<rect width="67" height="67" fill="white"/>
</clipPath>
</defs>
</svg>
