<svg width="67" height="67" viewBox="0 0 67 67" fill="none" xmlns="http://www.w3.org/2000/svg">
<path d="M35.9549 4.81295C34.4688 3.97714 32.5312 3.98089 31.0438 4.81295C23.5943 8.92413 16.1445 13.0366 8.69358 17.1458C7.24372 17.9086 6.26584 19.4656 6.28143 21.0816V45.9218C6.27097 47.5694 7.29927 49.1414 8.78652 49.8936C10.9267 51.0322 13.006 52.2864 15.1848 53.3492C17.7016 54.5859 20.8505 54.8594 23.3981 53.5696C25.4661 52.5008 26.3846 50.1233 26.3819 47.9385C26.3986 39.7406 26.3846 31.5426 26.3884 23.3445C26.4376 22.9802 26.1639 22.5907 25.7665 22.5995C24.8145 22.5844 23.8612 22.5907 22.9092 22.597C22.5495 22.5631 22.1984 22.8619 22.2256 23.2235C22.2128 31.3686 22.2281 39.5162 22.2178 47.6625C22.2386 48.7894 21.4773 49.8723 20.3913 50.2529C17.8831 51.1321 10.7241 46.4838 10.7241 46.4838C10.4614 46.3621 10.2946 46.0772 10.3203 45.7941C10.3203 37.5987 10.3216 29.4032 10.3203 21.2091C10.2842 20.8787 10.4878 20.5811 10.7912 20.4463C18.2163 16.3593 25.6375 12.2621 33.0626 8.17266C33.3206 8.00054 33.6801 8.00106 33.9374 8.17392C41.3624 12.2621 48.785 16.3556 56.2113 20.4427C56.5158 20.5774 56.7107 20.8799 56.6797 21.2091C56.6784 29.4032 56.6822 37.5987 56.6772 45.793C56.6992 46.083 56.5493 46.364 56.2785 46.4913C48.9228 50.5561 41.4833 54.4898 34.1941 58.6727C33.876 58.8551 33.5157 59.0618 33.1593 58.8608C31.2425 57.8005 29.3489 56.699 27.4384 55.6284C27.2307 55.4988 26.9662 55.4431 26.7495 55.5882C25.893 56.0396 25.0873 56.4052 24.1037 56.7946C22.7222 57.3415 22.9429 57.5651 24.1889 58.291C26.4231 59.5555 28.6611 60.8149 30.8954 62.0805C32.3662 62.9984 34.3425 63.0638 35.8607 62.2156C43.3115 58.1095 50.76 53.9987 58.2123 49.8926C59.6955 49.1361 60.729 47.5704 60.7185 45.9216V21.0816C60.733 19.4983 59.7925 17.9691 58.3863 17.1951C50.9108 13.0639 43.4317 8.94166 35.9549 4.81295Z" fill="#8CC84B"/>
<path d="M47.1971 23.463C44.2728 21.8985 40.7938 21.8152 37.5441 22.0198C35.1964 22.2518 32.7272 22.8996 31.0168 24.5825C29.2625 26.2743 28.8806 29.0062 29.7139 31.2147C30.311 32.7754 31.8141 33.7902 33.3685 34.327C35.3708 35.0339 37.4737 35.2525 39.5773 35.4711C41.496 35.6704 43.4154 35.8699 45.2595 36.4401C46.0129 36.6896 46.8902 37.0715 47.1209 37.8912C47.334 38.8619 47.1004 39.9902 46.3123 40.6646C43.809 42.6459 36.8456 42.3423 34.3723 40.7829C33.3723 40.1186 32.9414 38.9425 32.7661 37.8217C32.7467 37.4725 32.4655 37.1521 32.0863 37.1787C31.1368 37.1674 30.1873 37.1699 29.2378 37.1775C28.9065 37.1496 28.5621 37.3854 28.5439 37.7235C28.3487 42.8568 33.0632 45.0946 37.4863 45.5872C40.0132 45.828 42.5957 45.8142 45.0841 45.2719C46.9546 44.846 48.8302 44.0617 50.1179 42.621C51.7058 40.87 52.018 38.2631 51.3059 36.082C50.7615 34.4545 49.2056 33.4106 47.6152 32.8736C45.4524 32.132 42.8892 31.7333 40.9303 31.5467C38.083 31.2756 34.6995 31.3864 33.8936 29.5154C33.5722 28.5357 33.8457 27.3193 34.746 26.7167C37.128 25.1009 41.9761 25.3155 44.443 26.5226C45.5757 27.0898 46.2321 28.2547 46.503 29.4308C46.5533 29.7763 46.7857 30.1368 47.1856 30.1217C48.1286 30.1406 49.0716 30.1268 50.0145 30.128C50.3384 30.1506 50.693 29.9679 50.7563 29.6362C50.7163 27.1781 49.4611 24.6619 47.1971 23.463Z" fill="#8CC84B"/>
</svg>
