<svg width="67" height="67" viewBox="0 0 67 67" fill="none" xmlns="http://www.w3.org/2000/svg">
<g clip-path="url(#clip0_119_132)">
<path d="M46.4239 45.9926C48.8964 45.7367 50.7721 43.6052 50.6868 41.0472C50.6017 38.4894 48.47 36.443 45.9123 36.443H45.7419C43.0985 36.5283 41.0524 38.7451 41.1377 41.3882C41.2231 42.6672 41.7345 43.7756 42.5018 44.543C39.603 50.2558 35.1695 54.4336 28.5192 57.9294C24.0004 60.3167 19.3112 61.1694 14.622 60.5727C10.7852 60.0611 7.80105 58.356 5.92505 55.542C3.19689 51.3641 2.94119 46.845 5.24327 42.3262C6.86331 39.0861 9.42083 36.6987 11.0409 35.505C10.6998 34.3966 10.1882 32.5209 9.93249 31.1568C-2.43032 40.1094 -1.1513 52.2168 2.60017 57.9294C5.41365 62.1927 11.1262 64.8358 17.4354 64.8358C19.1405 64.8358 20.8456 64.6652 22.551 64.2391C33.4644 62.1074 41.7347 55.6273 46.4239 45.9926ZM61.4298 35.42C54.9499 27.8314 45.4009 23.6536 34.4875 23.6536H33.1234C32.356 22.1189 30.736 21.0956 28.9456 21.0956H28.7749C26.1321 21.1809 24.086 23.3977 24.171 26.041C24.2564 28.5988 26.3878 30.6452 28.9456 30.6452H29.1159C30.9917 30.5599 32.6117 29.3662 33.2938 27.7461H34.8285C41.3084 27.7461 47.447 29.6219 52.9891 33.2883C57.252 36.102 60.3215 39.7684 62.0266 44.2019C63.476 47.783 63.3906 51.2788 61.8559 54.2632C59.4688 58.782 55.4616 61.2547 50.1754 61.2547C46.7649 61.2547 43.5251 60.2314 41.8198 59.4641C40.882 60.3167 39.1767 61.6808 37.983 62.5338C41.6494 64.2389 45.4009 65.1769 48.9817 65.1769C57.1667 65.1769 63.2203 60.6578 65.5223 56.1389C67.9948 51.1935 67.8242 42.6672 61.4298 35.42ZM18.1175 47.4418C18.2028 49.9998 20.3342 52.0459 22.892 52.0459H23.0627C25.7058 51.9609 27.7519 49.7438 27.6665 47.1007C27.5815 44.5427 25.4498 42.4966 22.892 42.4966H22.7216C22.551 42.4966 22.295 42.4966 22.1249 42.5816C18.6291 36.7838 17.1797 30.4745 17.6914 23.6534C18.0322 18.5375 19.7375 14.1038 22.7216 10.4373C25.1941 7.28259 29.9686 5.74787 33.2087 5.66281C42.2461 5.49217 46.0826 16.7469 46.3386 21.266C47.447 21.5217 49.3227 22.1186 50.6017 22.545C49.5784 8.73251 41.0524 1.57031 32.8677 1.57031C25.1941 1.57031 18.1175 7.11247 15.3037 15.2977C11.3819 26.2114 13.9397 36.6987 18.7142 44.9693C18.2881 45.566 18.0322 46.5038 18.1175 47.4418Z" fill="#764ABC"/>
</g>
<defs>
<clipPath id="clip0_119_132">
<rect width="67" height="67" fill="white"/>
</clipPath>
</defs>
</svg>
