<svg width="67" height="67" viewBox="0 0 67 67" fill="none" xmlns="http://www.w3.org/2000/svg">
<path d="M61.6671 51.6344C58.0245 51.5421 55.2014 51.9122 52.8336 52.9297C52.1505 53.207 51.0576 53.2073 50.9665 54.0862C51.3308 54.4563 51.3763 55.0577 51.6951 55.5663C52.2421 56.4912 53.1976 57.7403 54.0629 58.3882C55.0189 59.1281 55.9755 59.868 56.9769 60.5157C58.7529 61.6259 60.7566 62.2733 62.4868 63.3836C63.4889 64.0307 64.49 64.8639 65.4919 65.5575C65.9928 65.9271 66.3113 66.529 66.9491 66.7601V66.6215C66.6301 66.2049 66.539 65.6038 66.2205 65.1412C65.7656 64.6786 65.3097 64.2622 64.8543 63.7996C63.534 61.996 61.8948 60.4231 60.1191 59.1281C58.6621 58.1104 55.4743 56.7228 54.8826 55.0112C54.8826 55.0112 54.8368 54.9652 54.7915 54.9189C55.7931 54.8264 56.9769 54.4563 57.9334 54.1787C59.4815 53.7621 60.893 53.8549 62.4868 53.4386C63.2152 53.2535 63.9438 53.0222 64.6722 52.7909V52.3748C63.853 51.5421 63.261 50.4321 62.3957 49.6457C60.0735 47.61 57.5233 45.6213 54.8826 43.9562C53.4709 43.031 51.6493 42.4296 50.1468 41.6434C49.6008 41.3656 48.6898 41.2271 48.3713 40.7645C47.5513 39.747 47.0959 38.4057 46.5042 37.2029C45.1841 34.6586 43.9087 31.8372 42.7702 29.1546C41.9511 27.3504 41.4501 25.5463 40.4483 23.8814C35.7583 16.0179 30.6584 11.2536 22.8267 6.5815C21.1418 5.61029 19.1383 5.19394 16.9983 4.68534C15.8603 4.63881 14.7216 4.54656 13.5834 4.50003C12.8547 4.17621 12.1261 3.29752 11.4886 2.88117C8.89363 1.21579 2.19965 -2.39175 0.287271 2.37257C-0.942283 5.37898 2.10883 8.33914 3.15571 9.86601C3.9304 10.9297 4.93173 12.1323 5.4782 13.335C5.79697 14.1209 5.88779 14.9542 6.20656 15.7866C6.93545 17.8213 7.61801 20.0883 8.5746 21.985C9.07553 22.9562 9.62173 23.9737 10.2593 24.8526C10.6236 25.3612 11.2609 25.5928 11.3978 26.4252C10.7605 27.3504 10.7147 28.7383 10.3501 29.8945C8.71095 35.1214 9.34876 41.5971 11.6707 45.4363C12.3991 46.5922 14.1296 49.1371 16.4518 48.1654C18.5011 47.3329 18.0457 44.6964 18.6372 42.3836C18.7743 41.8279 18.6832 41.4584 18.9562 41.0883V41.1811C19.5937 42.4758 20.231 43.7251 20.823 45.0202C22.2347 47.2864 24.6933 49.6457 26.7423 51.2186C27.8355 52.0507 28.7005 53.4848 30.0667 53.9937V53.8546H29.9753C29.7021 53.4383 29.2923 53.2535 28.9282 52.9294C28.1088 52.0973 27.1977 51.0795 26.5604 50.1543C24.6483 47.5637 22.9631 44.6961 21.4606 41.7357C20.7322 40.3021 20.0944 38.7292 19.5027 37.2954C19.2292 36.7398 19.2292 35.9076 18.774 35.6303C18.091 36.6478 17.0894 37.5267 16.5884 38.7755C15.7237 40.7645 15.6324 43.216 15.3136 45.7598C15.1314 45.8066 15.2223 45.7598 15.1312 45.8529C13.6744 45.4823 13.1735 43.9562 12.6268 42.6609C11.2606 39.3769 11.0329 34.1037 12.2172 30.3109C12.536 29.3394 13.9021 26.2867 13.3557 25.3615C13.0824 24.4825 12.1714 23.9737 11.6707 23.28C11.079 22.4011 10.4412 21.2913 10.0316 20.3196C8.93865 17.7293 8.39218 14.8614 7.20842 12.271C6.66195 11.0683 5.70616 9.81975 4.93173 8.70949C4.06675 7.46072 3.11043 6.5815 2.42735 5.10142C2.19991 4.59282 1.88088 3.76013 2.24519 3.205C2.33627 2.83491 2.51816 2.69639 2.88274 2.60387C3.47474 2.09474 5.15969 2.74239 5.75117 3.01995C7.43612 3.71333 8.84757 4.36151 10.2593 5.33272C10.8966 5.79533 11.5797 6.67429 12.3991 6.90559H13.3554C14.8127 7.22915 16.4515 6.99811 17.8177 7.41419C20.2313 8.20036 22.4166 9.35688 24.3748 10.6059C30.3399 14.445 35.2571 19.9033 38.5814 26.4252C39.1279 27.4887 39.3553 28.4607 39.8563 29.5704C40.8129 31.8372 41.9966 34.15 42.9524 36.3702C43.9087 38.5439 44.8192 40.7645 46.1854 42.5686C46.8685 43.5396 49.6003 44.0487 50.8299 44.5576C51.7407 44.9736 53.1524 45.344 53.9718 45.8526C55.5199 46.8235 57.0679 47.9343 58.5252 48.9978C59.2538 49.5529 61.5302 50.7094 61.6671 51.6344Z" fill="#00546B"/>
</svg>
