<svg width="67" height="67" viewBox="0 0 67 67" fill="none" xmlns="http://www.w3.org/2000/svg">
<path d="M18.8438 28.6843C20.7979 20.8677 25.6833 16.9594 33.5 16.9594C45.225 16.9594 46.6906 25.7531 52.5531 27.2187C56.4615 28.1958 59.8812 26.7302 62.8125 22.8218C60.8583 30.6385 55.9729 34.5469 48.1562 34.5469C36.4313 34.5469 34.9656 25.7531 29.1031 24.2875C25.1948 23.3104 21.775 24.776 18.8438 28.6843ZM4.1875 46.2719C6.14167 38.4552 11.0271 34.5469 18.8438 34.5469C30.5688 34.5469 32.0344 43.3406 37.8969 44.8062C41.8052 45.7833 45.225 44.3177 48.1562 40.4093C46.2021 48.226 41.3167 52.1343 33.5 52.1343C21.775 52.1343 20.3094 43.3406 14.4469 41.875C10.5385 40.8979 7.11875 42.3635 4.1875 46.2719Z" fill="#44A8B3"/>
</svg>
